<svg width="28" height="28" viewBox="0 0 28 28" fill="none" xmlns="http://www.w3.org/2000/svg">
<path d="M8.44323 4.37488C11.0169 2.88897 12.3037 2.14601 13.711 2.07615C13.9037 2.06658 14.0968 2.06658 14.2895 2.07615C15.6967 2.14601 16.9835 2.88897 19.5572 4.37488C22.1309 5.8608 23.4177 6.60375 24.1819 7.78751C24.2865 7.94962 24.383 8.11683 24.4711 8.28852C25.1142 9.54214 25.1142 11.0281 25.1142 13.9999C25.1142 16.9717 25.1142 18.4576 24.4711 19.7112C24.383 19.8829 24.2865 20.0501 24.1819 20.2123C23.4177 21.396 22.1309 22.139 19.5572 23.6249C16.9835 25.1108 15.6967 25.8538 14.2895 25.9236C14.0968 25.9332 13.9037 25.9332 13.711 25.9236C12.3037 25.8538 11.0169 25.1108 8.44323 23.6249C5.86955 22.139 4.58271 21.396 3.81859 20.2123C3.71395 20.0501 3.61741 19.8829 3.52933 19.7112C2.88623 18.4576 2.88623 16.9717 2.88623 13.9999C2.88623 11.0281 2.88623 9.54214 3.52933 8.28852C3.61741 8.11683 3.71395 7.94962 3.81859 7.78751C4.58271 6.60375 5.86955 5.8608 8.44323 4.37488Z" stroke="#676363" stroke-width="1.5"/>
<path d="M11.6855 12.9544C11.9224 12.3791 12.3793 11.9222 12.9547 11.6853L16.0777 10.3993C17.0366 10.0045 17.9955 10.9634 17.6007 11.9223L16.3147 15.0453C16.0778 15.6207 15.6209 16.0776 15.0456 16.3145L11.9225 17.6005C10.9636 17.9953 10.0047 17.0364 10.3995 16.0775L11.6855 12.9544Z" stroke="#676363" stroke-width="1.5"/>
</svg>
