<svg width="332" height="20" viewBox="0 0 332 20" fill="none" xmlns="http://www.w3.org/2000/svg">
<path d="M6.23328 15.2917L8.81661 17.2917C9.14994 17.625 9.89994 17.7917 10.3999 17.7917H13.5666C14.5666 17.7917 15.6499 17.0417 15.8999 16.0417L17.8999 9.95835C18.3166 8.79168 17.5666 7.79168 16.3166 7.79168H12.9833C12.4833 7.79168 12.0666 7.37501 12.1499 6.79168L12.5666 4.12501C12.7333 3.37501 12.2333 2.54168 11.4833 2.29168C10.8166 2.04168 9.98328 2.37501 9.64994 2.87501L6.23328 7.95835" stroke="#B6B6B6" stroke-width="1.5" stroke-miterlimit="10"/>
<path d="M1.98328 15.2917V7.12502C1.98328 5.95835 2.48328 5.54169 3.64994 5.54169H4.48328C5.64994 5.54169 6.14994 5.95835 6.14994 7.12502V15.2917C6.14994 16.4584 5.64994 16.875 4.48328 16.875H3.64994C2.48328 16.875 1.98328 16.4584 1.98328 15.2917Z" stroke="#B6B6B6" stroke-width="1.5" stroke-linecap="round" stroke-linejoin="round"/>
<path d="M91.7666 4.70837L89.1833 2.70837C88.85 2.37504 88.1 2.20837 87.6 2.20837H84.4333C83.4333 2.20837 82.35 2.95837 82.1 3.95837L80.1 10.0417C79.6833 11.2084 80.4333 12.2084 81.6833 12.2084H85.0166C85.5166 12.2084 85.9333 12.625 85.85 13.2084L85.4333 15.875C85.2666 16.625 85.7666 17.4584 86.5166 17.7084C87.1833 17.9584 88.0166 17.625 88.35 17.125L91.7666 12.0417" stroke="#B6B6B6" stroke-width="1.5" stroke-miterlimit="10"/>
<path d="M96.0168 4.70833V12.875C96.0168 14.0417 95.5168 14.4583 94.3501 14.4583H93.5168C92.3501 14.4583 91.8501 14.0417 91.8501 12.875V4.70833C91.8501 3.54167 92.3501 3.125 93.5168 3.125H94.3501C95.5168 3.125 96.0168 3.54167 96.0168 4.70833Z" stroke="#B6B6B6" stroke-width="1.5" stroke-linecap="round" stroke-linejoin="round"/>
<path d="M162.167 5.26667L169.242 2.90834C172.417 1.85001 174.142 3.58334 173.092 6.75834L170.733 13.8333C169.15 18.5917 166.55 18.5917 164.967 13.8333L164.267 11.7333L162.167 11.0333C157.408 9.45001 157.408 6.85834 162.167 5.26667Z" stroke="#B6B6B6" stroke-width="1.5" stroke-linecap="round" stroke-linejoin="round"/>
<path d="M164.425 11.375L167.408 8.38336" stroke="#B6B6B6" stroke-width="1.5" stroke-linecap="round" stroke-linejoin="round"/>
<path d="M247.246 9.6275C247.104 9.345 246.816 9.16668 246.5 9.16668H244.833V0.83332C244.833 0.37332 244.461 0 244 0C243.539 0 243.167 0.37332 243.167 0.83332V9.16664H241.5C241.184 9.16664 240.896 9.34496 240.754 9.62746C240.614 9.90996 240.644 10.2475 240.833 10.5L243.333 13.8333C243.344 13.8475 243.361 13.8525 243.373 13.8658C243.428 13.9308 243.493 13.9808 243.565 14.0266C243.595 14.0449 243.618 14.0691 243.651 14.0841C243.758 14.1341 243.874 14.1666 244 14.1666C244.126 14.1666 244.243 14.1341 244.35 14.0841C244.382 14.0691 244.406 14.0449 244.435 14.0266C244.508 13.9808 244.573 13.9308 244.628 13.8658C244.638 13.8525 244.656 13.8475 244.667 13.8333L247.167 10.5C247.357 10.2475 247.387 9.91 247.246 9.6275Z" fill="#B6B6B6"/>
<path d="M253.167 12.5C252.706 12.5 252.333 12.8733 252.333 13.3333V15.8333C252.333 17.2116 251.212 18.3333 249.833 18.3333H238.167C236.788 18.3333 235.667 17.2116 235.667 15.8333V13.3333C235.667 12.8733 235.294 12.5 234.833 12.5C234.372 12.5 234 12.8733 234 13.3333V15.8333C234 18.1308 235.869 20 238.167 20H249.833C252.131 20 254 18.1308 254 15.8333V13.3333C254 12.8733 253.628 12.5 253.167 12.5Z" fill="#B6B6B6"/>
<path d="M322.742 4.90002H316.258C314.833 4.90002 313.667 6.06668 313.667 7.49168V16.9584C313.667 18.1667 314.533 18.6833 315.592 18.0917L318.867 16.2667C319.217 16.075 319.783 16.075 320.125 16.2667L323.4 18.0917C324.458 18.6833 325.325 18.1667 325.325 16.9584V7.49168C325.333 6.06668 324.167 4.90002 322.742 4.90002Z" stroke="#B6B6B6" stroke-width="1.5" stroke-linecap="round" stroke-linejoin="round"/>
<path d="M325.333 7.49168V16.9584C325.333 18.1667 324.467 18.675 323.408 18.0917L320.133 16.2667C319.783 16.075 319.217 16.075 318.867 16.2667L315.592 18.0917C314.533 18.675 313.667 18.1667 313.667 16.9584V7.49168C313.667 6.06668 314.833 4.90002 316.258 4.90002H322.742C324.167 4.90002 325.333 6.06668 325.333 7.49168Z" stroke="#B6B6B6" stroke-width="1.5" stroke-linecap="round" stroke-linejoin="round"/>
<path d="M330.333 4.25834V13.725C330.333 14.9334 329.467 15.4417 328.408 14.8583L325.333 13.1417V7.49168C325.333 6.06668 324.167 4.90002 322.742 4.90002H318.667V4.25834C318.667 2.83334 319.833 1.66669 321.258 1.66669H327.742C329.167 1.66669 330.333 2.83334 330.333 4.25834Z" stroke="#B6B6B6" stroke-width="1.5" stroke-linecap="round" stroke-linejoin="round"/>
</svg>
