<svg width="20" height="20" viewBox="0 0 20 20" fill="none" xmlns="http://www.w3.org/2000/svg">
<path d="M17.5 7.50002C17.279 7.50002 17.067 7.41222 16.9107 7.25594C16.7545 7.09966 16.6667 6.8877 16.6667 6.66669V3.33335H13.3333C13.1123 3.33335 12.9004 3.24556 12.7441 3.08928C12.5878 2.933 12.5 2.72103 12.5 2.50002C12.5 2.27901 12.5878 2.06705 12.7441 1.91076C12.9004 1.75448 13.1123 1.66669 13.3333 1.66669H16.6667C17.1087 1.66669 17.5326 1.84228 17.8452 2.15484C18.1577 2.4674 18.3333 2.89133 18.3333 3.33335V6.66669C18.3333 6.8877 18.2455 7.09966 18.0893 7.25594C17.933 7.41222 17.721 7.50002 17.5 7.50002Z" fill="#FEFEFE"/>
<path d="M16.6667 17.0443H13.3333C13.1123 17.0443 12.9004 16.9565 12.7441 16.8002C12.5878 16.6439 12.5 16.432 12.5 16.2109C12.5 15.9899 12.5878 15.778 12.7441 15.6217C12.9004 15.4654 13.1123 15.3776 13.3333 15.3776H16.6667V12.0443C16.6667 11.8233 16.7545 11.6113 16.9107 11.455C17.067 11.2987 17.279 11.2109 17.5 11.2109C17.721 11.2109 17.933 11.2987 18.0893 11.455C18.2455 11.6113 18.3333 11.8233 18.3333 12.0443V15.3776C18.3333 15.8196 18.1577 16.2436 17.8452 16.5561C17.5326 16.8687 17.1087 17.0443 16.6667 17.0443Z" fill="#FEFEFE"/>
<path d="M6.66675 17.0443H3.33341C2.89139 17.0443 2.46746 16.8687 2.1549 16.5561C1.84234 16.2436 1.66675 15.8196 1.66675 15.3776V12.0443C1.66675 11.8233 1.75455 11.6113 1.91083 11.455C2.06711 11.2987 2.27907 11.2109 2.50008 11.2109C2.7211 11.2109 2.93306 11.2987 3.08934 11.455C3.24562 11.6113 3.33341 11.8233 3.33341 12.0443V15.3776H6.66675C6.88776 15.3776 7.09972 15.4654 7.256 15.6217C7.41228 15.778 7.50008 15.9899 7.50008 16.2109C7.50008 16.432 7.41228 16.6439 7.256 16.8002C7.09972 16.9565 6.88776 17.0443 6.66675 17.0443Z" fill="#FEFEFE"/>
<path d="M2.50008 7.50002C2.27907 7.50002 2.06711 7.41222 1.91083 7.25594C1.75455 7.09966 1.66675 6.8877 1.66675 6.66669V3.33335C1.66675 2.89133 1.84234 2.4674 2.1549 2.15484C2.46746 1.84228 2.89139 1.66669 3.33341 1.66669H6.66675C6.88776 1.66669 7.09972 1.75448 7.256 1.91076C7.41228 2.06705 7.50008 2.27901 7.50008 2.50002C7.50008 2.72103 7.41228 2.933 7.256 3.08928C7.09972 3.24556 6.88776 3.33335 6.66675 3.33335H3.33341V6.66669C3.33341 6.8877 3.24562 7.09966 3.08934 7.25594C2.93306 7.41222 2.7211 7.50002 2.50008 7.50002Z" fill="#FEFEFE"/>
</svg>
