<svg width="28" height="29" viewBox="0 0 28 29" fill="none" xmlns="http://www.w3.org/2000/svg">
<path d="M6.1633 11.5405C7.25476 8.20063 10.3628 5.80195 14.0442 5.80195C16.0232 5.80195 17.8106 6.51108 19.215 7.67147L23.3006 3.54564C20.8109 1.35379 17.6191 0 14.0442 0C8.50853 0 3.74249 3.18906 1.45123 7.85953L6.1633 11.5405Z" fill="#EA4335"/>
<path d="M18.7733 21.2886C17.4978 22.1203 15.8771 22.563 14.0442 22.563C10.3769 22.563 7.27855 20.1827 6.17592 16.8628L1.44827 20.4877C3.73669 25.1664 8.5026 28.365 14.0442 28.365C17.4766 28.365 20.7565 27.1328 23.2129 24.8189L18.7733 21.2886Z" fill="#34A853"/>
<path d="M23.2129 24.8189C25.7818 22.3991 27.45 18.7962 27.45 14.1825C27.45 13.3445 27.3223 12.4419 27.1308 11.6039H14.0442V17.0835H21.577C21.2053 18.9261 20.2076 20.3534 18.7733 21.2887L23.2129 24.8189Z" fill="#4A90E2"/>
<path d="M6.17591 16.8631C5.8966 16.0222 5.74535 15.1209 5.74535 14.1828C5.74535 13.2589 5.89205 12.3707 6.16329 11.5407L1.45122 7.85974C0.510959 9.76305 0 11.9081 0 14.1828C0 16.4514 0.520549 18.5914 1.44826 20.4881L6.17591 16.8631Z" fill="#FBBC05"/>
</svg>
