<svg width="26" height="26" viewBox="0 0 26 26" fill="none" xmlns="http://www.w3.org/2000/svg">
<path d="M24.3018 7.34506L16.6601 1.23173C15.1668 0.0417288 12.8335 0.0300621 11.3518 1.22006L3.71012 7.34506C2.61345 8.22006 1.94845 9.97006 2.18179 11.3467L3.65179 20.1434C3.99012 22.1151 5.82179 23.6667 7.81679 23.6667H20.1835C22.1551 23.6667 24.0218 22.0801 24.3601 20.1317L25.8301 11.3351C26.0401 9.97006 25.3751 8.22006 24.3018 7.34506ZM14.8751 19.0001C14.8751 19.4784 14.4785 19.8751 14.0001 19.8751C13.5218 19.8751 13.1251 19.4784 13.1251 19.0001V15.5001C13.1251 15.0217 13.5218 14.6251 14.0001 14.6251C14.4785 14.6251 14.8751 15.0217 14.8751 15.5001V19.0001Z" fill="#D5D5D5"/>
</svg>
