<svg width="24" height="24" viewBox="0 0 24 24" fill="none" xmlns="http://www.w3.org/2000/svg">
<path d="M12.5 3.51501C12.5 3.23901 12.2765 3.01501 12 3.01501C9.243 3.01501 7 5.25801 7 8.01502C7 8.29102 7.2235 8.51502 7.5 8.51502C7.7765 8.51502 8 8.29102 8 8.01502C8 5.80951 9.7945 4.01501 12 4.01501C12.2765 4.01501 12.5 3.79101 12.5 3.51501Z" fill="#EAEAEA" fill-opacity="0.5"/>
<path d="M11.123 22.895H12H12.877C13.703 22.895 14.3765 22.2225 14.377 21.395V20.8455C14.893 20.608 15.2545 20.0895 15.2545 19.485V17.625C15.3425 17.434 15.395 17.224 15.395 17C15.395 16.492 15.508 16 15.7305 15.5365C15.951 15.077 16.2735 14.6605 16.6625 14.332C18.5355 12.7495 19.517 10.3375 19.2875 7.87748C18.9375 4.18999 15.881 1.28299 12.155 1.11499L12 1.10999L11.823 1.11549C8.11897 1.28299 5.06247 4.18999 4.71197 7.87848C4.48297 10.337 5.46447 12.7495 7.33747 14.3315C7.72647 14.6605 8.04897 15.077 8.26947 15.5365C8.49197 16 8.60497 16.492 8.60497 17C8.60497 17.2235 8.65747 17.434 8.74547 17.625V19.4855C8.74547 20.09 9.10647 20.609 9.62297 20.846V21.396C9.62347 22.2225 10.297 22.895 11.123 22.895ZM13.377 21.395C13.377 21.671 13.1525 21.895 12.877 21.895H12H11.123C10.8475 21.895 10.623 21.6705 10.623 21.395V20.985H12H13.377V21.395ZM14.2545 19.4855C14.2545 19.761 14.0305 19.9855 13.7545 19.9855H12H10.2455C9.96947 19.9855 9.74547 19.761 9.74547 19.4855V18.4515C9.86147 18.4805 9.98047 18.5 10.105 18.5H12H13.895C14.0195 18.5 14.1385 18.4805 14.2545 18.4515V19.4855ZM9.60497 17C9.60497 16.341 9.45897 15.7025 9.17097 15.1035C8.88947 14.518 8.47847 13.987 7.98297 13.568C6.35947 12.197 5.50897 10.105 5.70747 7.97248C6.01097 4.77798 8.65897 2.25949 11.845 2.11499L12 2.10999L12.1325 2.11449C15.341 2.25949 17.989 4.77798 18.292 7.97148C18.491 10.105 17.6405 12.197 16.017 13.568C15.5215 13.987 15.1105 14.518 14.829 15.1035C14.541 15.7025 14.395 16.341 14.395 17C14.395 17.2755 14.171 17.5 13.895 17.5H12H10.105C9.82897 17.5 9.60497 17.2755 9.60497 17Z" fill="#EAEAEA" fill-opacity="0.5"/>
</svg>
