<svg width="29" height="29" viewBox="0 0 29 29" fill="none" xmlns="http://www.w3.org/2000/svg">
<path d="M12.0831 17.875V16.4644C12.0831 14.7189 13.3212 13.9984 14.8332 14.8712L16.051 15.5714L17.2687 16.2716C18.7807 17.1443 18.7807 18.5751 17.2687 19.4479L16.051 20.1481L14.8332 20.8483C13.3212 21.721 12.0831 21.0106 12.0831 19.2551V17.875Z" stroke="#676363" stroke-width="1.5" stroke-miterlimit="10" stroke-linecap="round" stroke-linejoin="round"/>
<path d="M26.5833 15.7083V20.5416C26.5833 24.7708 24.1666 26.5833 20.5416 26.5833H8.45829C4.83329 26.5833 2.41663 24.7708 2.41663 20.5416V15.7083C2.41663 12.5062 3.80621 10.6937 6.04163 10.005C6.76663 9.77541 7.57621 9.66663 8.45829 9.66663H20.5416C21.4237 9.66663 22.2333 9.77541 22.9583 10.005C25.1937 10.6937 26.5833 12.5062 26.5833 15.7083Z" stroke="#676363" stroke-width="1.5" stroke-miterlimit="10" stroke-linecap="round" stroke-linejoin="round"/>
<path d="M22.9583 8.45829V10.005C22.2333 9.77541 21.4237 9.66663 20.5416 9.66663H8.45829C7.57621 9.66663 6.76663 9.77541 6.04163 10.005V8.45829C6.04163 7.12913 7.12913 6.04163 8.45829 6.04163H20.5416C21.8708 6.04163 22.9583 7.12913 22.9583 8.45829Z" stroke="#676363" stroke-width="1.5" stroke-miterlimit="10" stroke-linecap="round" stroke-linejoin="round"/>
<path d="M19.3333 4.24122V6.04163H9.66663V4.24122C9.66663 3.2383 10.4883 2.41663 11.4912 2.41663H17.5087C18.5116 2.41663 19.3333 3.2383 19.3333 4.24122Z" stroke="#676363" stroke-width="1.5" stroke-miterlimit="10" stroke-linecap="round" stroke-linejoin="round"/>
</svg>
