<svg width="17" height="19" viewBox="0 0 17 19" fill="none" xmlns="http://www.w3.org/2000/svg">
<g opacity="0.5">
<path d="M3.64607 18.0306C5.10745 18.0306 6.29214 16.8459 6.29214 15.3845C6.29214 13.9232 5.10745 12.7385 3.64607 12.7385C2.18469 12.7385 1 13.9232 1 15.3845C1 16.8459 2.18469 18.0306 3.64607 18.0306Z" stroke="#EAEAEA" stroke-width="1.5" stroke-linecap="round" stroke-linejoin="round"/>
<path d="M15.9998 13.6149V3.26658C15.9998 1.05872 14.6178 0.75544 13.2189 1.14308L7.92685 2.59249C6.96618 2.86215 6.30884 3.62059 6.30884 4.7161V6.56998V7.81715V15.4014" stroke="#EAEAEA" stroke-width="1.5" stroke-linecap="round" stroke-linejoin="round"/>
<path d="M13.3538 16.261C14.8152 16.261 15.9999 15.0763 15.9999 13.6149C15.9999 12.1535 14.8152 10.9688 13.3538 10.9688C11.8925 10.9688 10.7078 12.1535 10.7078 13.6149C10.7078 15.0763 11.8925 16.261 13.3538 16.261Z" stroke="#EAEAEA" stroke-width="1.5" stroke-linecap="round" stroke-linejoin="round"/>
<path d="M6.29224 7.80031L16.0001 5.15424" stroke="#EAEAEA" stroke-width="1.5" stroke-linecap="round" stroke-linejoin="round"/>
</g>
</svg>
