<svg width="28" height="28" viewBox="0 0 28 28" fill="none" xmlns="http://www.w3.org/2000/svg">
<path d="M10.6866 12.6817C10.5699 12.67 10.4299 12.67 10.3016 12.6817C7.52495 12.5884 5.31995 10.3134 5.31995 7.51337C5.31995 4.65504 7.62995 2.33337 10.4999 2.33337C13.3583 2.33337 15.6799 4.65504 15.6799 7.51337C15.6683 10.3134 13.4633 12.5884 10.6866 12.6817Z" stroke="#676363" stroke-width="1.5" stroke-linecap="round" stroke-linejoin="round"/>
<path d="M19.145 4.66663C21.4083 4.66663 23.2283 6.49829 23.2283 8.74996C23.2283 10.955 21.4783 12.7516 19.2966 12.8333C19.2033 12.8216 19.0983 12.8216 18.9933 12.8333" stroke="#676363" stroke-width="1.5" stroke-linecap="round" stroke-linejoin="round"/>
<path d="M4.85334 16.9866C2.03001 18.8766 2.03001 21.9566 4.85334 23.835C8.06167 25.9816 13.3233 25.9816 16.5317 23.835C19.355 21.945 19.355 18.865 16.5317 16.9866C13.335 14.8516 8.07334 14.8516 4.85334 16.9866Z" stroke="#676363" stroke-width="1.5" stroke-linecap="round" stroke-linejoin="round"/>
<path d="M21.3966 23.3334C22.2366 23.1584 23.0299 22.82 23.6833 22.3184C25.5033 20.9534 25.5033 18.7017 23.6833 17.3367C23.0416 16.8467 22.2599 16.52 21.4316 16.3334" stroke="#676363" stroke-width="1.5" stroke-linecap="round" stroke-linejoin="round"/>
</svg>
