<svg width="20" height="25" viewBox="0 0 20 25" fill="none" xmlns="http://www.w3.org/2000/svg">
<path fill-rule="evenodd" clip-rule="evenodd" d="M12.8349 0.551085C15.1777 -0.677757 18.0784 0.217426 19.3115 2.551C20.5446 4.88458 19.645 7.77154 17.3022 9.00039L15.3758 10.0197C17.0354 10.0807 18.6182 10.9983 19.4469 12.5669C20.68 14.9005 19.7825 17.7874 17.4376 19.0163L7.16475 24.4484C4.82192 25.6772 1.92117 24.782 0.688101 22.4485C-0.544969 20.1149 0.354566 17.2279 2.6974 15.9991L4.62382 14.9798C2.96423 14.9188 1.38145 14.0012 0.552665 12.4326C-0.680405 10.099 0.21913 7.21205 2.56196 5.98321L12.8349 0.551085ZM7.29008 8.65248L13.508 12.516L7.29008 16.3612V8.65248Z" fill="#646464"/>
</svg>
