<svg width="18" height="18" viewBox="0 0 18 18" fill="none" xmlns="http://www.w3.org/2000/svg">
<path d="M12.9802 5.61846C9.76732 3.66374 11.274 0.904781 11.3386 0.790102C11.4324 0.626906 11.4321 0.426129 11.3379 0.263215C11.2436 0.100301 11.0697 0 10.8814 0C9.22757 0 7.93248 0.469898 7.03217 1.39669C5.49377 2.9803 5.56513 5.445 5.59558 6.49751C5.59895 6.61409 5.60187 6.71484 5.60187 6.78966C5.60187 7.57111 5.72724 8.29255 5.83787 8.92905C5.90917 9.33922 5.97073 9.69346 5.98166 9.97196C5.99337 10.2701 5.93895 10.3384 5.93663 10.3412C5.92886 10.3504 5.86417 10.3848 5.68927 10.3848C5.48979 10.3848 5.34273 10.3196 5.21245 10.1736C4.70352 9.60289 4.66833 8.0447 4.76564 7.19698C4.78305 7.04749 4.73576 6.89773 4.63567 6.78537C4.53562 6.67301 4.39232 6.60874 4.24185 6.60874C2.87269 6.60874 1.84961 8.84777 1.84961 10.8497C1.84961 11.7908 2.03889 12.7127 2.41221 13.5898C2.77313 14.4377 3.28778 15.203 3.94193 15.8643C5.30431 17.2415 7.10055 18 8.99983 18C10.9067 18 12.7025 17.2522 14.0564 15.8945C15.4067 14.5403 16.1504 12.7486 16.1504 10.8496C16.1504 8.4266 14.2545 6.39369 12.9802 5.61846ZM8.99983 16.9453C5.69574 16.9453 2.90433 14.1539 2.90433 10.8496C2.90433 10.0461 3.09607 9.20257 3.43037 8.53548C3.50846 8.37963 3.58858 8.24593 3.66764 8.13329C3.67647 9.0033 3.81428 10.1893 4.42442 10.8745C4.75355 11.2441 5.19093 11.4395 5.6893 11.4395C6.15488 11.4395 6.50968 11.2983 6.74375 11.02C7.18137 10.4998 7.04704 9.72693 6.87702 8.74842C6.7737 8.15393 6.65659 7.48009 6.65659 6.78962C6.65659 6.69952 6.65346 6.59176 6.64988 6.46692C6.62102 5.46996 6.56093 3.39543 7.78869 2.13159C8.33984 1.56421 9.10934 1.2189 10.0828 1.10074C9.97292 1.46566 9.87817 1.92892 9.87452 2.44761C9.86643 3.59047 10.3036 5.22457 12.4321 6.51952C13.4619 7.14604 15.0957 8.87562 15.0957 10.8497C15.0957 14.2108 12.3611 16.9453 8.99983 16.9453Z" fill="#EAEAEA"/>
</svg>
