<svg width="164" height="123" viewBox="0 0 164 123" fill="none" xmlns="http://www.w3.org/2000/svg">
<path d="M117.671 9.09568C116.752 5.66191 114.053 2.96347 110.62 2.04429C104.402 0.376648 79.4598 0.376648 79.4598 0.376648C79.4598 0.376648 54.5174 0.376648 48.2999 2.04429C44.8661 2.96347 42.1677 5.66191 41.2485 9.09568C39.5809 15.3132 39.5809 28.2933 39.5809 28.2933C39.5809 28.2933 39.5809 41.2734 41.2485 47.491C42.1677 50.9247 44.8661 53.6231 48.2999 54.5421C54.5174 56.2099 79.4598 56.2099 79.4598 56.2099C79.4598 56.2099 104.402 56.2099 110.62 54.5421C114.053 53.6231 116.752 50.9247 117.671 47.491C119.339 41.2734 119.339 28.2933 119.339 28.2933C119.339 28.2933 119.332 15.3132 117.671 9.09568Z" fill="#FF0000"/>
<path d="M71.4764 40.2566L92.1973 28.2944L71.4764 16.3319V40.2566Z" fill="white"/>
<path d="M9.94659 106.291L0.991211 73.9493H8.80423L11.9426 88.6101C12.7436 92.2211 13.3278 95.3004 13.7086 97.8478H13.9384C14.2011 96.0226 14.7921 92.963 15.7047 88.6626L18.9544 73.9493H26.7675L17.7004 106.291V121.805H9.94016V106.291H9.94659Z" fill="#DDDDDD"/>
<path d="M29.1177 120.78C27.5421 119.716 26.4193 118.062 25.7496 115.817C25.0866 113.571 24.7519 110.591 24.7519 106.861V101.786C24.7519 98.0239 25.1326 94.9973 25.8942 92.719C26.6558 90.4408 27.8442 88.7732 29.4592 87.7293C31.0744 86.6853 33.195 86.1601 35.8214 86.1601C38.4081 86.1601 40.4762 86.6919 42.0387 87.7555C43.5947 88.8191 44.7371 90.4868 45.4593 92.7453C46.1815 95.0104 46.5427 98.0239 46.5427 101.786V106.861C46.5427 110.591 46.1882 113.584 45.4858 115.843C44.7832 118.108 43.6408 119.763 42.0649 120.806C40.4893 121.85 38.3489 122.376 35.6505 122.376C32.8667 122.382 30.6936 121.844 29.1177 120.78ZM37.955 115.305C38.3883 114.162 38.6116 112.304 38.6116 109.717V98.8251C38.6116 96.317 38.395 94.4786 37.955 93.3231C37.5151 92.161 36.7471 91.5832 35.6438 91.5832C34.5805 91.5832 33.8253 92.161 33.3921 93.3231C32.9521 94.4852 32.7355 96.317 32.7355 98.8251V109.717C32.7355 112.304 32.9454 114.169 33.3658 115.305C33.786 116.447 34.5408 117.018 35.6438 117.018C36.7471 117.018 37.5151 116.447 37.955 115.305Z" fill="#DDDDDD"/>
<path d="M71.9578 121.812H65.7994L65.1165 117.531H64.9459C63.2715 120.762 60.7635 122.377 57.4152 122.377C55.0975 122.377 53.384 121.615 52.281 120.099C51.178 118.575 50.6264 116.199 50.6264 112.968V86.8441H58.4986V112.509C58.4986 114.071 58.6692 115.181 59.0106 115.844C59.352 116.507 59.9232 116.842 60.7241 116.842C61.407 116.842 62.0636 116.632 62.6939 116.212C63.3243 115.791 63.7838 115.26 64.0923 114.616V86.8376H71.9578V121.812Z" fill="#DDDDDD"/>
<path d="M93.3422 80.2839H85.5292V121.811H77.8278V80.2839H70.0148V73.9548H93.3422V80.2839Z" fill="#DDDDDD"/>
<path d="M112.329 121.812H106.171L105.488 117.531H105.317C103.643 120.762 101.135 122.377 97.7865 122.377C95.4689 122.377 93.7553 121.615 92.6524 120.099C91.5494 118.575 90.9977 116.199 90.9977 112.968V86.8441H98.8699V112.509C98.8699 114.071 99.0405 115.181 99.3819 115.844C99.7234 116.507 100.295 116.842 101.096 116.842C101.778 116.842 102.435 116.632 103.065 116.212C103.696 115.791 104.155 115.26 104.464 114.616V86.8376H112.329V121.812Z" fill="#DDDDDD"/>
<path d="M138.381 92.4308C137.902 90.2248 137.134 88.6293 136.07 87.6379C135.007 86.6465 133.543 86.1541 131.678 86.1541C130.234 86.1541 128.881 86.5612 127.627 87.3819C126.373 88.2026 125.401 89.2727 124.718 90.6055H124.66V72.1827H117.076V121.805H123.576L124.377 118.496H124.548C125.158 119.678 126.071 120.603 127.286 121.293C128.5 121.976 129.853 122.317 131.337 122.317C133.996 122.317 135.959 121.089 137.213 118.64C138.467 116.185 139.097 112.357 139.097 107.144V101.609C139.097 97.7029 138.854 94.6368 138.381 92.4308ZM131.166 106.698C131.166 109.245 131.061 111.241 130.851 112.685C130.641 114.13 130.293 115.161 129.794 115.765C129.301 116.375 128.632 116.677 127.798 116.677C127.148 116.677 126.55 116.526 125.999 116.218C125.447 115.916 125.001 115.456 124.66 114.852V95.0044C124.922 94.0524 125.382 93.2777 126.032 92.6671C126.675 92.0565 127.384 91.7545 128.139 91.7545C128.94 91.7545 129.557 92.0697 129.991 92.6934C130.431 93.3237 130.733 94.3742 130.903 95.858C131.074 97.3418 131.159 99.4493 131.159 102.187V106.698H131.166Z" fill="#DDDDDD"/>
<path d="M150.265 108.713C150.265 110.958 150.33 112.639 150.462 113.762C150.593 114.885 150.869 115.699 151.289 116.218C151.709 116.73 152.353 116.986 153.226 116.986C154.401 116.986 155.215 116.526 155.648 115.614C156.088 114.701 156.325 113.178 156.364 111.051L163.153 111.451C163.192 111.753 163.212 112.173 163.212 112.705C163.212 115.935 162.326 118.351 160.56 119.947C158.794 121.542 156.292 122.343 153.062 122.343C149.182 122.343 146.463 121.128 144.907 118.693C143.345 116.257 142.57 112.495 142.57 107.4V101.294C142.57 96.0483 143.378 92.214 144.993 89.7979C146.608 87.3818 149.372 86.1737 153.291 86.1737C155.99 86.1737 158.065 86.6661 159.509 87.6575C160.953 88.6489 161.971 90.1852 162.562 92.2797C163.153 94.374 163.448 97.2629 163.448 100.953V106.94H150.265V108.713ZM151.263 92.2337C150.862 92.7261 150.6 93.5337 150.462 94.6564C150.33 95.7791 150.265 97.4795 150.265 99.7645V102.272H156.023V99.7645C156.023 97.5189 155.944 95.8185 155.793 94.6564C155.642 93.4943 155.366 92.6801 154.966 92.2009C154.565 91.7282 153.948 91.4852 153.114 91.4852C152.274 91.4918 151.657 91.7413 151.263 92.2337Z" fill="#DDDDDD"/>
</svg>
